<?xml version="1.0" standalone="no"?>
<!DOCTYPE svg PUBLIC "-//W3C//DTD SVG 20010904//EN"
 "http://www.w3.org/TR/2001/REC-SVG-20010904/DTD/svg10.dtd">
<svg version="1.0" xmlns="http://www.w3.org/2000/svg"
 width="147.000000pt" height="142.000000pt" viewBox="0 0 147.000000 142.000000"
 preserveAspectRatio="xMidYMid meet">

<g transform="translate(0.000000,142.000000) scale(0.100000,-0.100000)"
fill="#FFF" stroke="none">
<path d="M190 1363 c-43 -6 -91 -41 -122 -90 l-23 -38 0 -545 c0 -595 -2 -572
58 -628 37 -35 103 -40 632 -48 532 -7 534 -7 601 60 41 40 42 43 49 126 3 47
5 304 3 571 l-3 486 -28 36 c-57 75 -31 72 -612 73 -286 1 -536 -1 -555 -3z
m1120 -79 l38 -41 7 -124 c3 -68 5 -311 3 -539 -3 -411 -3 -415 -26 -451 -47
-77 -21 -74 -547 -77 -259 -2 -503 0 -544 3 -67 6 -78 10 -113 43 -26 24 -42
51 -48 77 -5 22 -10 268 -10 546 l0 506 40 46 c29 32 50 47 73 50 18 3 270 4
560 3 l528 -1 39 -41z"/>
<path d="M775 1032 c-48 -23 -69 -45 -90 -95 -20 -48 -19 -83 4 -134 27 -59
86 -96 151 -94 69 1 114 23 144 68 38 58 42 101 15 163 -39 91 -139 132 -224
92z m145 -34 c18 -13 41 -39 51 -58 67 -125 -78 -264 -199 -190 -82 50 -95
157 -29 229 44 47 123 55 177 19z"/>
<path d="M823 971 c-12 -10 -25 -30 -28 -43 -5 -21 1 -31 36 -60 24 -21 39
-40 35 -47 -11 -17 -37 -13 -52 6 -19 27 -27 9 -10 -24 28 -55 40 -57 70 -13
14 22 26 44 26 49 0 5 -14 19 -30 31 -41 29 -54 55 -35 70 11 9 18 7 32 -9 20
-24 33 -27 33 -8 -1 11 -44 68 -52 67 -2 -1 -13 -9 -25 -19z"/>
<path d="M270 525 l0 -158 72 8 c49 4 76 12 84 23 14 19 35 15 214 -34 144
-39 186 -33 288 40 86 62 232 192 232 206 0 5 -10 21 -23 35 -20 24 -25 25
-52 15 -16 -6 -54 -31 -84 -56 l-54 -45 -26 25 c-22 20 -39 24 -106 28 -61 4
-93 11 -132 31 -61 31 -100 33 -183 10 -56 -15 -61 -15 -73 0 -8 11 -35 19
-84 23 l-73 7 0 -158z m130 5 l0 -130 -50 0 -50 0 0 130 0 130 50 0 50 0 0
-130z m282 84 c37 -19 64 -24 120 -24 81 0 102 -8 96 -36 -2 -15 -13 -19 -53
-21 -148 -8 -181 -33 -42 -33 94 0 119 10 224 91 69 52 93 60 93 30 0 -36
-245 -233 -312 -252 -41 -10 -50 -9 -267 51 -41 11 -83 20 -93 20 -16 0 -18
10 -18 88 l0 87 78 16 c88 18 109 16 174 -17z"/>
</g>
</svg>
