<?xml version="1.0" standalone="no"?>
<!DOCTYPE svg PUBLIC "-//W3C//DTD SVG 20010904//EN"
 "http://www.w3.org/TR/2001/REC-SVG-20010904/DTD/svg10.dtd">
<svg version="1.0" xmlns="http://www.w3.org/2000/svg"
 width="150.000000pt" height="136.000000pt" viewBox="0 0 150.000000 136.000000"
 preserveAspectRatio="xMidYMid meet">
  <rect width="150" height="136" fill="#DDD"/> <!-- Fundo vermelho -->
  <g transform="translate(0.000000,136.000000) scale(0.100000,-0.100000)"
     fill="#000" stroke="none">
    <path d="M0 680 l0 -680 750 0 750 0 0 680 0 680 -750 0 -750 0 0 -680z m1423
    630 c55 -48 56 -57 57 -331 0 -140 0 -264 0 -275 0 -19 -4 -18 -42 17 -58 53
    -123 73 -206 66 -38 -4 -79 -15 -100 -27 l-35 -21 -14 21 c-13 18 -25 20 -148
    20 l-133 0 -25 -43 c-14 -23 -34 -50 -44 -60 -19 -16 -21 -15 -53 35 -19 29
    -41 57 -49 62 -18 11 -212 8 -223 -3 -4 -3 14 -34 40 -66 66 -82 152 -203 152
    -213 0 -4 -9 -14 -20 -22 -11 -8 -20 -19 -20 -24 0 -8 -75 -114 -90 -126 -24
    -20 -78 -108 -70 -116 5 -5 56 -8 114 -6 l106 3 29 42 c16 23 38 53 50 66 24
    28 22 30 82 -61 l31 -48 74 0 74 0 0 -90 0 -90 -417 0 -417 0 -37 26 c-24 16
    -44 43 -57 72 -19 45 -19 69 -16 576 4 526 4 529 26 569 46 81 12 78 723 75
    l630 -3 28 -25z m-463 -812 l0 -173 -35 50 c-19 28 -47 67 -62 88 l-26 38 31
    42 c17 23 44 61 59 84 15 23 29 42 31 43 1 0 2 -78 2 -172z m331 92 c42 -23
    62 -105 38 -153 -45 -87 -153 -67 -166 32 -12 88 60 157 128 121z m178 -483
    c-7 -16 -30 -42 -52 -58 -38 -28 -45 -29 -149 -29 l-108 0 0 88 0 87 92 0 c83
    1 98 4 139 28 25 15 54 36 65 48 19 21 19 21 22 -57 2 -45 -2 -90 -9 -107z"/>
  </g>
</svg>
