<?xml version="1.0" standalone="no"?>
<!DOCTYPE svg PUBLIC "-//W3C//DTD SVG 20010904//EN"
 "http://www.w3.org/TR/2001/REC-SVG-20010904/DTD/svg10.dtd">
<svg version="1.0" xmlns="http://www.w3.org/2000/svg"
 width="382.000000pt" height="226.000000pt" viewBox="0 0 382.000000 226.000000"
 preserveAspectRatio="xMidYMid meet">

<g transform="translate(0.000000,226.000000) scale(0.100000,-0.100000)"
fill="#000000" stroke="none">
<path d="M0 1130 l0 -1130 1910 0 1910 0 0 1130 0 1130 -1910 0 -1910 0 0
-1130z m250 -534 c0 -166 0 -166 -56 -166 l-24 0 0 160 0 160 40 0 40 0 0
-154z m395 71 l70 -82 3 83 3 83 37 -3 37 -3 0 -155 c0 -154 0 -155 -23 -158
-29 -4 -42 6 -111 93 l-56 70 -5 -80 -5 -80 -35 0 -35 0 -3 158 -3 157 28 0
c23 0 41 -16 98 -83z m515 -7 c18 -49 36 -90 39 -90 4 0 21 39 37 88 l29 87
43 3 c26 2 42 -1 42 -8 0 -27 -115 -303 -128 -308 -8 -3 -25 -1 -39 4 -20 7
-35 34 -77 139 -77 190 -76 175 -23 175 l45 0 32 -90z m515 -70 l0 -155 -35 0
-35 0 -3 158 -3 158 38 -3 38 -3 0 -155z m505 141 c42 -22 47 -40 22 -71 -17
-21 -20 -22 -43 -7 -42 27 -90 26 -119 -3 -28 -28 -27 -93 2 -120 27 -24 84
-27 116 -4 22 15 25 15 48 -7 23 -22 23 -23 6 -42 -23 -27 -74 -47 -117 -47
-166 0 -224 214 -81 301 41 25 120 25 166 0z m530 -21 l0 -40 -45 0 -45 0 0
-114 c0 -121 -2 -125 -50 -122 -25 1 -25 1 -28 118 l-3 117 -42 3 c-35 3 -43
7 -45 26 -7 50 -1 52 133 52 l125 0 0 -40z m320 -68 c0 -118 6 -132 52 -132
38 0 46 23 46 140 l0 95 39 0 38 0 0 -110 c0 -70 -5 -122 -13 -142 -24 -56
-118 -81 -182 -48 -49 25 -60 60 -60 190 l0 115 40 0 40 0 0 -108z m630 93
c34 -18 34 -16 18 -50 -12 -28 -23 -30 -64 -15 -28 11 -64 5 -64 -11 0 -5 29
-22 65 -38 48 -22 68 -37 75 -57 38 -98 -83 -168 -194 -114 -51 24 -54 33 -27
70 19 23 20 24 38 7 28 -25 76 -32 92 -14 10 13 8 18 -11 31 -13 8 -35 18 -51
21 -68 17 -89 105 -38 156 25 24 37 29 81 29 28 0 64 -7 80 -15z m-2073 -487
c-12 -9 -17 -30 -19 -70 -3 -67 -17 -78 -20 -15 -3 79 5 96 41 97 12 0 11 -3
-2 -12z m923 3 c0 -5 -8 -8 -17 -7 -15 1 -18 -9 -21 -61 -4 -77 -18 -82 -25
-10 -4 38 -1 57 11 70 16 18 52 24 52 8z m40 -6 c-22 -12 -23 -14 -7 -20 15
-6 16 -9 3 -19 -8 -6 -17 -31 -19 -56 l-4 -45 -1 48 c-2 40 -5 47 -22 47 -11
0 -20 5 -20 10 0 6 6 10 13 10 7 0 20 9 30 20 9 11 25 20 34 20 14 -1 12 -4
-7 -15z m-1595 -25 c3 -9 14 -25 24 -34 17 -15 20 -14 46 24 15 22 29 40 31
40 2 0 3 -33 2 -72 l-1 -73 -6 55 -6 55 -20 -32 c-24 -39 -41 -42 -57 -8 -18
40 -37 31 -33 -15 2 -22 -1 -42 -6 -45 -5 -4 -9 23 -9 64 0 58 3 69 15 65 8
-3 17 -14 20 -24z m305 -35 c0 -36 -4 -65 -9 -65 -6 0 -9 29 -8 65 0 36 5 65
9 65 4 0 8 -29 8 -65z m82 17 c-7 -2 -12 -19 -12 -38 0 -26 5 -37 23 -44 22
-10 22 -10 -3 -7 -22 2 -26 8 -31 52 -3 28 -4 58 -1 68 4 16 6 16 20 -4 11
-17 12 -24 4 -27z m88 44 c0 -3 -4 -8 -10 -11 -5 -3 -10 -1 -10 4 0 6 5 11 10
11 6 0 10 -2 10 -4z m570 -6 c0 -5 -2 -10 -4 -10 -3 0 -8 5 -11 10 -3 6 -1 10
4 10 6 0 11 -4 11 -10z m70 -54 c0 -36 -4 -68 -10 -71 -6 -4 -10 20 -10 64 0
41 4 71 10 71 6 0 10 -28 10 -64z m530 49 c0 -8 -2 -15 -4 -15 -2 0 -6 7 -10
15 -3 8 -1 15 4 15 6 0 10 -7 10 -15z m-872 -73 c-3 -39 -6 -46 -28 -49 -41
-6 -67 5 -74 31 -12 49 18 76 76 68 28 -4 29 -6 26 -50z m201 44 c6 -4 10 -28
10 -54 l-2 -47 -7 43 c-3 24 -13 48 -21 52 -20 13 -42 -12 -44 -49 -2 -50 -15
-48 -15 2 0 43 -2 47 -25 47 -18 0 -25 -5 -25 -20 0 -11 -4 -20 -10 -20 -5 0
-10 11 -10 24 0 18 6 26 23 28 36 5 113 1 126 -6z m234 -41 c11 33 27 58 34
51 3 -2 -2 -19 -11 -38 -8 -18 -22 -50 -30 -71 -8 -21 -22 -37 -31 -37 -13 0
-13 4 4 21 20 22 20 22 1 60 -11 21 -20 46 -20 56 0 10 10 -2 21 -27 l21 -45
11 30z m234 28 c13 -17 10 -48 -8 -69 -30 -36 -107 5 -93 49 3 12 7 22 8 23
31 25 72 24 93 -3z m334 17 c5 0 9 -4 9 -8 0 -4 -15 -6 -34 -4 -46 5 -65 -25
-37 -59 16 -21 22 -22 45 -11 14 6 26 7 26 2 0 -13 -38 -23 -65 -16 -24 6 -39
43 -29 71 8 19 43 36 62 29 8 -2 18 -4 23 -4z m135 -4 c1 -1 5 -11 8 -23 6
-20 4 -23 -21 -24 -15 -1 -33 -1 -40 0 -19 2 -24 -16 -8 -29 8 -7 26 -10 40
-8 14 3 25 1 25 -3 0 -13 -64 -11 -78 3 -18 18 -15 75 6 87 13 8 58 6 68 -3z
m-1709 -84 c23 -3 26 3 36 68 3 15 5 9 6 -15 1 -46 -12 -65 -46 -65 -25 0 -43
26 -43 63 0 43 15 40 20 -5 4 -35 9 -44 27 -46z m267 41 c3 -24 1 -45 -5 -48
-5 -4 -9 16 -9 46 0 61 7 62 14 2z m575 0 c-1 -37 -3 -42 -8 -23 -7 24 -3 70
5 70 2 0 4 -21 3 -47z m599 -5 l-1 -53 -6 45 c-6 43 -5 60 5 60 2 0 3 -24 2
-52z m-798 -23 c0 -8 -4 -15 -10 -15 -5 0 -10 7 -10 15 0 8 5 15 10 15 6 0 10
-7 10 -15z"/>
<path d="M1640 181 c-7 -15 -5 -24 8 -41 32 -39 76 -9 64 43 -6 24 -58 23 -72
-2z"/>
<path d="M2314 175 c-7 -29 10 -55 36 -55 24 0 42 24 38 52 -2 18 -10 24 -35
26 -28 3 -33 -1 -39 -23z"/>
<path d="M2797 193 c-15 -15 -5 -23 28 -23 24 0 35 5 35 15 0 15 -50 22 -63 8z"/>
</g>
</svg>
